<svg className="controls-button-icon" width="26" height="26" viewBox="0 0 29 28" fill="none" xmlns="http://www.w3.org/2000/svg">
    <path d="M14.2839 24.8351L13.5768 25.5422C13.7644 25.7297 14.0187 25.8351 14.2839 25.8351C14.5492 25.8351 14.8035 25.7297 14.9911 25.5422L14.2839 24.8351ZM3.15028 13.7014L2.44317 14.4085H2.44317L3.15028 13.7014ZM12.4836 4.36806L11.7765 5.07516V5.07516L12.4836 4.36806ZM14.2839 6.16839L13.5768 6.8755C13.7644 7.06304 14.0187 7.16839 14.2839 7.16839C14.5492 7.16839 14.8035 7.06304 14.9911 6.8755L14.2839 6.16839ZM16.0843 4.36805L15.3772 3.66095V3.66095L16.0843 4.36805ZM14.9911 24.128L3.85739 12.9943L2.44317 14.4085L13.5768 25.5422L14.9911 24.128ZM24.7105 12.9943L13.5768 24.128L14.9911 25.5422L26.1247 14.4085L24.7105 12.9943ZM11.7765 5.07516L13.5768 6.8755L14.9911 5.46129L13.1907 3.66095L11.7765 5.07516ZM14.9911 6.8755L16.7914 5.07516L15.3772 3.66095L13.5768 5.46129L14.9911 6.8755ZM20.7509 1.43506C18.7354 1.43506 16.8024 2.23573 15.3772 3.66095L16.7914 5.07516C17.8415 4.02502 19.2658 3.43506 20.7509 3.43506V1.43506ZM26.3506 9.03472C26.3506 10.5198 25.7606 11.9441 24.7105 12.9943L26.1247 14.4085C27.5499 12.9833 28.3506 11.0503 28.3506 9.03472H26.3506ZM28.3506 9.03472C28.3506 4.83754 24.9481 1.43506 20.7509 1.43506V3.43506C23.8436 3.43506 26.3506 5.94211 26.3506 9.03472H28.3506ZM7.81695 3.43506C9.30207 3.43506 10.7264 4.02502 11.7765 5.07516L13.1907 3.66095C11.7655 2.23574 9.8325 1.43506 7.81695 1.43506V3.43506ZM2.21729 9.03472C2.21729 5.94211 4.72434 3.43506 7.81695 3.43506V1.43506C3.61977 1.43506 0.217285 4.83754 0.217285 9.03472H2.21729ZM3.85739 12.9943C2.80725 11.9441 2.21729 10.5198 2.21729 9.03472H0.217285C0.217285 11.0503 1.01796 12.9833 2.44317 14.4085L3.85739 12.9943Z"/>
</svg>