<svg className="controls-button-icon" width="28" height="28" viewBox="0 0 30 32" fill="none" xmlns="http://www.w3.org/2000/svg">
    <path d="M2.91846 5.28257L3.8382 4.09763C3.38585 3.74651 2.77305 3.68358 2.25877 3.93542C1.74449 4.18726 1.41846 4.70993 1.41846 5.28257H2.91846ZM2.91846 26.4124H1.41846C1.41846 26.9851 1.74449 27.5077 2.25877 27.7596C2.77305 28.0114 3.38585 27.9485 3.8382 27.5974L2.91846 26.4124ZM16.5295 15.8475L17.4492 17.0324C17.8153 16.7483 18.0295 16.3109 18.0295 15.8475C18.0295 15.3841 17.8153 14.9467 17.4492 14.6626L16.5295 15.8475ZM1.41846 5.28257V26.4124H4.41846V5.28257H1.41846ZM3.8382 27.5974L17.4492 17.0324L15.6097 14.6626L1.99871 25.2275L3.8382 27.5974ZM17.4492 14.6626L3.8382 4.09763L1.99871 6.4675L15.6097 17.0324L17.4492 14.6626ZM24.7517 4.22607V27.4689H27.7517V4.22607H24.7517Z"/>
</svg>