<svg className="controls-button-icon" width="28" height="28" viewBox="0 0 31 32" fill="none" xmlns="http://www.w3.org/2000/svg">
    <path d="M27.2473 26.7174L26.3276 27.9024C26.7799 28.2535 27.3927 28.3164 27.907 28.0646C28.4213 27.8127 28.7473 27.2901 28.7473 26.7174H27.2473ZM27.2473 5.58758H28.7473C28.7473 5.01495 28.4213 4.49228 27.907 4.24043C27.3927 3.98859 26.7799 4.05153 26.3276 4.40265L27.2473 5.58758ZM13.6362 16.1525L12.7165 14.9676C12.3504 15.2517 12.1362 15.6891 12.1362 16.1525C12.1362 16.6159 12.3504 17.0533 12.7165 17.3374L13.6362 16.1525ZM28.7473 26.7174V5.58758H25.7473V26.7174H28.7473ZM26.3276 4.40265L12.7165 14.9676L14.5559 17.3374L28.1671 6.77252L26.3276 4.40265ZM12.7165 17.3374L26.3276 27.9024L28.1671 25.5325L14.5559 14.9676L12.7165 17.3374ZM5.41397 27.7739V4.53109H2.41397V27.7739H5.41397Z"/>
</svg>   