<svg className="controls-button-icon" width="28" height="28" viewBox="0 0 33 33" fill="none" xmlns="http://www.w3.org/2000/svg">
    <path d="M10.0999 9.56929H23.8499V12.0305C23.8499 12.6493 24.5924 12.9518 25.0187 12.5118L28.8549 8.67554C29.1299 8.40054 29.1299 7.97429 28.8549 7.69929L25.0187 3.86304C24.9217 3.76803 24.7989 3.70383 24.6655 3.67854C24.5321 3.65325 24.3943 3.66801 24.2693 3.72094C24.1443 3.77388 24.0378 3.86263 23.9632 3.976C23.8885 4.08938 23.8491 4.22231 23.8499 4.35804V6.81929H8.72492C7.96867 6.81929 7.34992 7.43804 7.34992 8.19429V13.6943C7.34992 14.4505 7.96867 15.0693 8.72492 15.0693C9.48117 15.0693 10.0999 14.4505 10.0999 13.6943V9.56929ZM23.8499 23.3193H10.0999V20.858C10.0999 20.2393 9.35742 19.9368 8.93117 20.3768L5.09492 24.213C4.81992 24.488 4.81992 24.9143 5.09492 25.1893L8.93117 29.0255C9.0281 29.1206 9.15099 29.1848 9.28435 29.21C9.41771 29.2353 9.55557 29.2206 9.68055 29.1676C9.80554 29.1147 9.91206 29.026 9.98669 28.9126C10.0613 28.7992 10.1007 28.6663 10.0999 28.5305V26.0693H25.2249C25.9812 26.0693 26.5999 25.4505 26.5999 24.6943V19.1943C26.5999 18.438 25.9812 17.8193 25.2249 17.8193C24.4687 17.8193 23.8499 18.438 23.8499 19.1943V23.3193Z"/>
</svg>