<svg className="controls-button-icon" width="28" height="28" viewBox="0 0 33 33" fill="none" xmlns="http://www.w3.org/2000/svg">
    <path d="M24.1469 12.1899C24.1469 12.5546 24.2918 12.9043 24.5496 13.1622C24.8075 13.4201 25.1572 13.5649 25.5219 13.5649C25.8866 13.5649 26.2363 13.4201 26.4942 13.1622C26.752 12.9043 26.8969 12.5546 26.8969 12.1899V6.26367C26.8969 5.899 26.752 5.54926 26.4942 5.2914C26.2363 5.03354 25.8866 4.88867 25.5219 4.88867H19.6094C19.2447 4.88867 18.895 5.03354 18.6371 5.2914C18.3793 5.54926 18.2344 5.899 18.2344 6.26367C18.2344 6.62834 18.3793 6.97808 18.6371 7.23594C18.895 7.49381 19.2447 7.63867 19.6094 7.63867H22.2081L15.8969 13.9499L7.86689 5.93367C7.60385 5.70841 7.2655 5.5907 6.91944 5.60407C6.57339 5.61744 6.24512 5.76089 6.00024 6.00577C5.75536 6.25065 5.6119 6.57892 5.59854 6.92497C5.58517 7.27103 5.70288 7.60938 5.92814 7.87242L13.9444 15.8887L5.29564 24.5374C5.16676 24.6652 5.06447 24.8173 4.99466 24.9849C4.92486 25.1524 4.88892 25.3322 4.88892 25.5137C4.88892 25.6952 4.92486 25.8749 4.99466 26.0425C5.06447 26.21 5.16676 26.3621 5.29564 26.4899C5.42346 26.6188 5.57554 26.7211 5.7431 26.7909C5.91065 26.8607 6.09037 26.8966 6.27189 26.8966C6.45341 26.8966 6.63313 26.8607 6.80068 26.7909C6.96824 26.7211 7.12032 26.6188 7.24814 26.4899L24.1469 9.59117V12.1899Z"/>
    <path d="M25.5219 18.1988C25.1572 18.1988 24.8075 18.3437 24.5496 18.6016C24.2918 18.8594 24.1469 19.2092 24.1469 19.5738V22.2001L20.3244 18.3638C20.0655 18.1049 19.7143 17.9595 19.3482 17.9595C18.982 17.9595 18.6308 18.1049 18.3719 18.3638C18.113 18.6228 17.9675 18.9739 17.9675 19.3401C17.9675 19.7063 18.113 20.0574 18.3719 20.3163L22.1807 24.1389H19.5957C19.231 24.1389 18.8812 24.2837 18.6234 24.5416C18.3655 24.7994 18.2207 25.1492 18.2207 25.5139C18.2207 25.8785 18.3655 26.2283 18.6234 26.4861C18.8812 26.744 19.231 26.8889 19.5957 26.8889H25.5219C25.7159 26.89 25.908 26.8501 26.0855 26.7718C26.263 26.6934 26.422 26.5784 26.5518 26.4342C26.6817 26.2901 26.7796 26.12 26.8391 25.9353C26.8985 25.7506 26.9183 25.5555 26.8969 25.3626V19.5738C26.8969 19.2092 26.752 18.8594 26.4942 18.6016C26.2363 18.3437 25.8866 18.1988 25.5219 18.1988Z"/>
</svg>